<svg xmlns="http://www.w3.org/2000/svg" xmlns:xlink="http://www.w3.org/1999/xlink" width="500" zoomAndPan="magnify" viewBox="0 0 375 374.999991" height="500" preserveAspectRatio="xMidYMid meet" version="1.0"><defs><g/><clipPath id="4ae1a2c14b"><path d="M 239 134 L 331.597656 134 L 331.597656 214 L 239 214 Z M 239 134 " clip-rule="nonzero"/></clipPath><clipPath id="f2862ddc0e"><path d="M 270 187 L 314 187 L 314 230.882812 L 270 230.882812 Z M 270 187 " clip-rule="nonzero"/></clipPath><clipPath id="ea2be6144d"><path d="M 174 187 L 218 187 L 218 230.882812 L 174 230.882812 Z M 174 187 " clip-rule="nonzero"/></clipPath><clipPath id="c1e06a971f"><path d="M 121.597656 178 L 183 178 L 183 188 L 121.597656 188 Z M 121.597656 178 " clip-rule="nonzero"/></clipPath><clipPath id="30e1ec3b57"><path d="M 156 108.632812 L 271 108.632812 L 271 214 L 156 214 Z M 156 108.632812 " clip-rule="nonzero"/></clipPath><clipPath id="d1db5b499d"><path d="M 114.242188 122.019531 L 183.589844 122.019531 L 183.589844 188.539062 L 114.242188 188.539062 Z M 114.242188 122.019531 " clip-rule="nonzero"/></clipPath><clipPath id="17bfe304f6"><path d="M 53.550781 108.632812 L 98.863281 108.632812 L 98.863281 132.699219 L 53.550781 132.699219 Z M 53.550781 108.632812 " clip-rule="nonzero"/></clipPath><clipPath id="2a86086d61"><path d="M 65.585938 108.632812 L 86.804688 108.632812 C 89.996094 108.632812 93.058594 109.898438 95.3125 112.15625 C 97.570312 114.414062 98.839844 117.472656 98.839844 120.664062 C 98.839844 123.855469 97.570312 126.917969 95.3125 129.171875 C 93.058594 131.429688 89.996094 132.699219 86.804688 132.699219 L 65.585938 132.699219 C 62.394531 132.699219 59.332031 131.429688 57.074219 129.171875 C 54.820312 126.917969 53.550781 123.855469 53.550781 120.664062 C 53.550781 117.472656 54.820312 114.414062 57.074219 112.15625 C 59.332031 109.898438 62.394531 108.632812 65.585938 108.632812 Z M 65.585938 108.632812 " clip-rule="nonzero"/></clipPath><clipPath id="028c9dac8b"><path d="M 53.554688 108.632812 L 98.550781 108.632812 L 98.550781 132.632812 L 53.554688 132.632812 Z M 53.554688 108.632812 " clip-rule="nonzero"/></clipPath><clipPath id="1fba752665"><path d="M 65.585938 108.632812 L 86.796875 108.632812 C 89.988281 108.632812 93.046875 109.898438 95.304688 112.15625 C 97.558594 114.410156 98.828125 117.46875 98.828125 120.660156 C 98.828125 123.851562 97.558594 126.910156 95.304688 129.167969 C 93.046875 131.421875 89.988281 132.691406 86.796875 132.691406 L 65.585938 132.691406 C 62.394531 132.691406 59.335938 131.421875 57.078125 129.167969 C 54.824219 126.910156 53.554688 123.851562 53.554688 120.660156 C 53.554688 117.46875 54.824219 114.410156 57.078125 112.15625 C 59.335938 109.898438 62.394531 108.632812 65.585938 108.632812 Z M 65.585938 108.632812 " clip-rule="nonzero"/></clipPath><clipPath id="52fe4c3ce2"><path d="M 73.589844 135.550781 L 121.65625 135.550781 L 121.65625 158.171875 L 73.589844 158.171875 Z M 73.589844 135.550781 " clip-rule="nonzero"/></clipPath><clipPath id="3c20581b0b"><path d="M 84.902344 135.550781 L 110.289062 135.550781 C 113.289062 135.550781 116.164062 136.742188 118.285156 138.863281 C 120.40625 140.984375 121.597656 143.863281 121.597656 146.859375 C 121.597656 149.859375 120.40625 152.738281 118.285156 154.859375 C 116.164062 156.980469 113.289062 158.171875 110.289062 158.171875 L 84.902344 158.171875 C 81.902344 158.171875 79.023438 156.980469 76.902344 154.859375 C 74.78125 152.738281 73.589844 149.859375 73.589844 146.859375 C 73.589844 143.863281 74.78125 140.984375 76.902344 138.863281 C 79.023438 136.742188 81.902344 135.550781 84.902344 135.550781 Z M 84.902344 135.550781 " clip-rule="nonzero"/></clipPath><clipPath id="0c622d5b2e"><path d="M 73.589844 135.554688 L 121.589844 135.554688 L 121.589844 158.050781 L 73.589844 158.050781 Z M 73.589844 135.554688 " clip-rule="nonzero"/></clipPath><clipPath id="1c53e93d8d"><path d="M 84.898438 135.554688 L 110.285156 135.554688 C 113.28125 135.554688 116.160156 136.746094 118.28125 138.863281 C 120.398438 140.984375 121.589844 143.863281 121.589844 146.859375 C 121.589844 149.859375 120.398438 152.734375 118.28125 154.855469 C 116.160156 156.976562 113.28125 158.167969 110.285156 158.167969 L 84.898438 158.167969 C 81.898438 158.167969 79.023438 156.976562 76.902344 154.855469 C 74.78125 152.734375 73.589844 149.859375 73.589844 146.859375 C 73.589844 143.863281 74.78125 140.984375 76.902344 138.863281 C 79.023438 136.746094 81.898438 135.554688 84.898438 135.554688 Z M 84.898438 135.554688 " clip-rule="nonzero"/></clipPath><clipPath id="a12792b7e8"><path d="M 41.753906 135.550781 L 73.679688 135.550781 L 73.679688 159.449219 L 41.753906 159.449219 Z M 41.753906 135.550781 " clip-rule="nonzero"/></clipPath><clipPath id="070f6838cd"><path d="M 53.703125 135.550781 L 61.644531 135.550781 C 68.242188 135.550781 73.589844 140.902344 73.589844 147.5 C 73.589844 154.101562 68.242188 159.449219 61.644531 159.449219 L 53.703125 159.449219 C 47.101562 159.449219 41.753906 154.101562 41.753906 147.5 C 41.753906 140.902344 47.101562 135.550781 53.703125 135.550781 Z M 53.703125 135.550781 " clip-rule="nonzero"/></clipPath><clipPath id="6c32e3ae25"><path d="M 41.753906 135.554688 L 73.253906 135.554688 L 73.253906 159.539062 L 41.753906 159.539062 Z M 41.753906 135.554688 " clip-rule="nonzero"/></clipPath><clipPath id="bd76569615"><path d="M 53.699219 135.554688 L 61.636719 135.554688 C 68.234375 135.554688 73.582031 140.902344 73.582031 147.5 C 73.582031 154.097656 68.234375 159.445312 61.636719 159.445312 L 53.699219 159.445312 C 47.101562 159.445312 41.753906 154.097656 41.753906 147.5 C 41.753906 140.902344 47.101562 135.554688 53.699219 135.554688 Z M 53.699219 135.554688 " clip-rule="nonzero"/></clipPath></defs><rect x="-37.5" width="450" fill="#ffffff" y="-37.499999" height="449.999989" fill-opacity="1"/><rect x="-37.5" width="450" fill="#ffffff" y="-37.499999" height="449.999989" fill-opacity="1"/><path fill="#142d4c" d="M 178.40625 213.539062 L 160.925781 213.539062 C 158.515625 213.539062 156.558594 211.578125 156.558594 209.167969 C 156.558594 206.753906 158.515625 204.796875 160.925781 204.796875 L 178.40625 204.796875 C 180.820312 204.796875 182.777344 206.753906 182.777344 209.167969 C 182.777344 211.578125 180.820312 213.539062 178.40625 213.539062 Z M 178.40625 213.539062 " fill-opacity="1" fill-rule="nonzero"/><g clip-path="url(#4ae1a2c14b)"><path fill="#142d4c" d="M 320.429688 213.539062 L 309.503906 213.539062 C 307.089844 213.539062 305.132812 211.578125 305.132812 209.167969 C 305.132812 206.753906 307.089844 204.796875 309.503906 204.796875 L 316.800781 204.796875 L 322.691406 173.402344 C 322.613281 157.339844 308.890625 143.621094 292.023438 143.621094 L 263.332031 143.621094 L 249.425781 204.796875 L 274.542969 204.796875 C 276.957031 204.796875 278.914062 206.753906 278.914062 209.167969 C 278.914062 211.578125 276.957031 213.539062 274.542969 213.539062 L 243.957031 213.539062 C 242.625 213.539062 241.367188 212.933594 240.539062 211.894531 C 239.707031 210.863281 239.394531 209.5 239.691406 208.207031 L 255.578125 138.289062 C 256.035156 136.285156 257.800781 134.878906 259.84375 134.878906 L 292.023438 134.878906 C 313.707031 134.878906 331.351562 152.523438 331.351562 174.207031 L 324.71875 209.972656 C 324.335938 212.042969 322.535156 213.539062 320.429688 213.539062 Z M 320.429688 213.539062 " fill-opacity="1" fill-rule="nonzero"/></g><g clip-path="url(#f2862ddc0e)"><path fill="#142d4c" d="M 292.023438 231.015625 C 279.980469 231.015625 270.175781 221.21875 270.175781 209.167969 C 270.175781 197.113281 279.980469 187.316406 292.023438 187.316406 C 304.066406 187.316406 313.875 197.113281 313.875 209.167969 C 313.875 221.21875 304.066406 231.015625 292.023438 231.015625 Z M 292.023438 196.058594 C 284.796875 196.058594 278.914062 201.941406 278.914062 209.167969 C 278.914062 216.394531 284.796875 222.277344 292.023438 222.277344 C 299.25 222.277344 305.132812 216.394531 305.132812 209.167969 C 305.132812 201.941406 299.25 196.058594 292.023438 196.058594 Z M 292.023438 196.058594 " fill-opacity="1" fill-rule="nonzero"/></g><g clip-path="url(#ea2be6144d)"><path fill="#142d4c" d="M 195.886719 231.015625 C 183.84375 231.015625 174.039062 221.21875 174.039062 209.167969 C 174.039062 197.113281 183.84375 187.316406 195.886719 187.316406 C 207.929688 187.316406 217.734375 197.113281 217.734375 209.167969 C 217.734375 221.21875 207.929688 231.015625 195.886719 231.015625 Z M 195.886719 196.058594 C 188.660156 196.058594 182.777344 201.941406 182.777344 209.167969 C 182.777344 216.394531 188.660156 222.277344 195.886719 222.277344 C 203.113281 222.277344 208.996094 216.394531 208.996094 209.167969 C 208.996094 201.941406 203.113281 196.058594 195.886719 196.058594 Z M 195.886719 196.058594 " fill-opacity="1" fill-rule="nonzero"/></g><path fill="#142d4c" d="M 178.40625 134.878906 L 143.449219 134.878906 C 141.035156 134.878906 139.078125 132.921875 139.078125 130.507812 C 139.078125 128.097656 141.035156 126.140625 143.449219 126.140625 L 178.40625 126.140625 C 180.820312 126.140625 182.777344 128.097656 182.777344 130.507812 C 182.777344 132.921875 180.820312 134.878906 178.40625 134.878906 Z M 178.40625 134.878906 " fill-opacity="1" fill-rule="nonzero"/><path fill="#142d4c" d="M 178.40625 161.097656 L 134.707031 161.097656 C 132.296875 161.097656 130.339844 159.140625 130.339844 156.730469 C 130.339844 154.316406 132.296875 152.359375 134.707031 152.359375 L 178.40625 152.359375 C 180.820312 152.359375 182.777344 154.316406 182.777344 156.730469 C 182.777344 159.140625 180.820312 161.097656 178.40625 161.097656 Z M 178.40625 161.097656 " fill-opacity="1" fill-rule="nonzero"/><g clip-path="url(#c1e06a971f)"><path fill="#142d4c" d="M 178.40625 187.316406 L 125.96875 187.316406 C 123.554688 187.316406 121.597656 185.359375 121.597656 182.949219 C 121.597656 180.535156 123.554688 178.578125 125.96875 178.578125 L 178.40625 178.578125 C 180.820312 178.578125 182.777344 180.535156 182.777344 182.949219 C 182.777344 185.359375 180.820312 187.316406 178.40625 187.316406 Z M 178.40625 187.316406 " fill-opacity="1" fill-rule="nonzero"/></g><g clip-path="url(#30e1ec3b57)"><path fill="#142d4c" d="M 243.957031 213.539062 L 213.367188 213.539062 C 210.953125 213.539062 208.996094 211.578125 208.996094 209.167969 C 208.996094 206.753906 210.953125 204.796875 213.367188 204.796875 L 240.46875 204.796875 L 260.324219 117.398438 L 160.925781 117.398438 C 158.515625 117.398438 156.558594 115.441406 156.558594 113.03125 C 156.558594 110.617188 158.515625 108.660156 160.925781 108.660156 L 265.804688 108.660156 C 267.132812 108.660156 268.390625 109.261719 269.222656 110.304688 C 270.050781 111.335938 270.367188 112.699219 270.070312 113.992188 L 248.21875 210.128906 C 247.765625 212.128906 245.992188 213.539062 243.957031 213.539062 Z M 243.957031 213.539062 " fill-opacity="1" fill-rule="nonzero"/></g><g clip-path="url(#d1db5b499d)"><path fill="#ffffff" d="M 114.242188 122.019531 L 183.621094 122.019531 L 183.621094 188.539062 L 114.242188 188.539062 Z M 114.242188 122.019531 " fill-opacity="1" fill-rule="nonzero"/></g><g fill="#142d4c" fill-opacity="1"><g transform="translate(75.348712, 211.960905)"><g><path d="M 67.34375 -53.46875 C 76.40625 -56.53125 83.28125 -66.90625 83.28125 -74.796875 C 83.28125 -95.546875 67.34375 -102.265625 45.296875 -102.265625 L 10.953125 -102.265625 C 8.90625 -102.265625 7.3125 -100.65625 7.3125 -98.609375 L 7.3125 -3.65625 C 7.3125 -1.609375 8.90625 0 10.953125 0 L 52.15625 0 C 74.21875 0 89.125 -11.546875 89.125 -30.828125 C 89.125 -41.203125 80.5 -52.59375 67.34375 -53.03125 Z M 54.9375 -70.125 C 54.9375 -65.890625 52.296875 -61.5 43.828125 -61.5 L 37.40625 -61.5 L 37.40625 -77.578125 L 43.390625 -77.578125 C 50.546875 -77.578125 54.9375 -74.65625 54.9375 -70.125 Z M 49.96875 -24.25 L 37.40625 -24.25 L 37.40625 -40.46875 L 50.109375 -40.46875 C 56.25 -40.46875 59.90625 -36.96875 59.90625 -32.4375 C 59.90625 -28.046875 56.25 -24.25 49.96875 -24.25 Z M 49.96875 -24.25 "/></g></g></g><g clip-path="url(#17bfe304f6)"><g clip-path="url(#2a86086d61)"><path fill="#000000" d="M 53.550781 108.632812 L 98.863281 108.632812 L 98.863281 132.699219 L 53.550781 132.699219 Z M 53.550781 108.632812 " fill-opacity="1" fill-rule="nonzero"/></g></g><g clip-path="url(#028c9dac8b)"><g clip-path="url(#1fba752665)"><path stroke-linecap="butt" transform="matrix(0.75, 0, 0, 0.75, 53.555468, 108.631356)" fill="none" stroke-linejoin="miter" d="M 16.040627 0.00194191 L 44.321879 0.00194191 C 48.577087 0.00194191 52.655213 1.689442 55.665629 4.699859 C 58.670838 7.705067 60.363546 11.783193 60.363546 16.038401 C 60.363546 20.29361 58.670838 24.371735 55.665629 27.382152 C 52.655213 30.387361 48.577087 32.080069 44.321879 32.080069 L 16.040627 32.080069 C 11.785418 32.080069 7.707293 30.387361 4.696876 27.382152 C 1.691668 24.371735 -0.00104091 20.29361 -0.00104091 16.038401 C -0.00104091 11.783193 1.691668 7.705067 4.696876 4.699859 C 7.707293 1.689442 11.785418 0.00194191 16.040627 0.00194191 Z M 16.040627 0.00194191 " stroke="#ffffff" stroke-width="4" stroke-opacity="1" stroke-miterlimit="4"/></g></g><g clip-path="url(#52fe4c3ce2)"><g clip-path="url(#3c20581b0b)"><path fill="#000000" d="M 73.589844 135.550781 L 121.566406 135.550781 L 121.566406 158.171875 L 73.589844 158.171875 Z M 73.589844 135.550781 " fill-opacity="1" fill-rule="nonzero"/></g></g><g clip-path="url(#0c622d5b2e)"><g clip-path="url(#1c53e93d8d)"><path stroke-linecap="butt" transform="matrix(0.75, 0, 0, 0.75, 73.59156, 135.553395)" fill="none" stroke-linejoin="miter" d="M 15.075839 0.0017232 L 48.924802 0.0017232 C 52.919594 0.0017232 56.758136 1.590265 59.586262 4.413182 C 62.409179 7.241307 63.99772 11.07985 63.99772 15.074642 C 63.99772 19.074642 62.409179 22.907976 59.586262 25.736102 C 56.758136 28.564227 52.919594 30.152769 48.924802 30.152769 L 15.075839 30.152769 C 11.075839 30.152769 7.242505 28.564227 4.414379 25.736102 C 1.586254 22.907976 -0.00228789 19.074642 -0.00228789 15.074642 C -0.00228789 11.07985 1.586254 7.241307 4.414379 4.413182 C 7.242505 1.590265 11.075839 0.0017232 15.075839 0.0017232 Z M 15.075839 0.0017232 " stroke="#ffffff" stroke-width="4" stroke-opacity="1" stroke-miterlimit="4"/></g></g><g clip-path="url(#a12792b7e8)"><g clip-path="url(#070f6838cd)"><path fill="#000000" d="M 41.753906 135.550781 L 73.585938 135.550781 L 73.585938 159.449219 L 41.753906 159.449219 Z M 41.753906 135.550781 " fill-opacity="1" fill-rule="nonzero"/></g></g><g clip-path="url(#6c32e3ae25)"><g clip-path="url(#bd76569615)"><path stroke-linecap="butt" transform="matrix(0.75, 0, 0, 0.75, 41.753579, 135.554216)" fill="none" stroke-linejoin="miter" d="M 15.927519 0.000628802 L 26.510853 0.000628802 C 35.307728 0.000628802 42.437936 7.130837 42.437936 15.927712 C 42.437936 24.724587 35.307728 31.854796 26.510853 31.854796 L 15.927519 31.854796 C 7.130644 31.854796 0.000435856 24.724587 0.000435856 15.927712 C 0.000435856 7.130837 7.130644 0.000628802 15.927519 0.000628802 Z M 15.927519 0.000628802 " stroke="#ffffff" stroke-width="4" stroke-opacity="1" stroke-miterlimit="4"/></g></g><g fill="#142d4c" fill-opacity="1"><g transform="translate(135.666344, 268.258659)"><g><path d="M 18.0625 -12.890625 C 19.425781 -12.441406 20.453125 -11.726562 21.140625 -10.75 C 21.835938 -9.78125 22.1875 -8.65625 22.1875 -7.375 C 22.1875 -5.957031 21.847656 -4.691406 21.171875 -3.578125 C 20.492188 -2.460938 19.523438 -1.585938 18.265625 -0.953125 C 17.003906 -0.316406 15.515625 0 13.796875 0 L 2.328125 0 L 2.328125 -24.546875 L 11.6875 -24.546875 C 14.632812 -24.546875 16.925781 -24.023438 18.5625 -22.984375 C 20.207031 -21.953125 21.03125 -20.328125 21.03125 -18.109375 C 21.03125 -17.046875 20.75 -16.003906 20.1875 -14.984375 C 19.625 -13.972656 18.914062 -13.273438 18.0625 -12.890625 Z M 11.6875 -15.1875 C 12.832031 -15.1875 13.703125 -15.359375 14.296875 -15.703125 C 14.890625 -16.054688 15.1875 -16.578125 15.1875 -17.265625 C 15.1875 -17.984375 14.894531 -18.492188 14.3125 -18.796875 C 13.738281 -19.109375 12.863281 -19.265625 11.6875 -19.265625 L 8.171875 -19.265625 L 8.171875 -15.1875 Z M 12.265625 -5.25 C 13.554688 -5.25 14.554688 -5.441406 15.265625 -5.828125 C 15.984375 -6.210938 16.34375 -6.8125 16.34375 -7.625 C 16.34375 -8.394531 15.984375 -8.972656 15.265625 -9.359375 C 14.554688 -9.742188 13.554688 -9.9375 12.265625 -9.9375 L 8.171875 -9.9375 L 8.171875 -5.25 Z M 12.265625 -5.25 "/></g></g></g><g fill="#142d4c" fill-opacity="1"><g transform="translate(159.026997, 268.258659)"><g><path d="M 17.53125 0 L 2.328125 0 L 2.328125 -24.546875 L 8.171875 -24.546875 L 8.171875 -5.25 L 17.53125 -5.25 Z M 17.53125 0 "/></g></g></g><g fill="#142d4c" fill-opacity="1"><g transform="translate(177.724939, 268.258659)"><g><path d="M 8.171875 -14.890625 L 16.34375 -14.890625 L 16.34375 -9.640625 L 8.171875 -9.640625 L 8.171875 -5.25 L 18.109375 -5.25 L 18.109375 0 L 2.328125 0 L 2.328125 -24.546875 L 18.109375 -24.546875 L 18.109375 -19.265625 L 8.171875 -19.265625 Z M 8.171875 -14.890625 "/></g></g></g><g fill="#142d4c" fill-opacity="1"><g transform="translate(197.576772, 268.258659)"><g><path d="M 11.6875 -15.453125 C 13.882812 -14.984375 15.679688 -14.453125 17.078125 -13.859375 C 18.472656 -13.273438 19.578125 -12.460938 20.390625 -11.421875 C 21.210938 -10.390625 21.625 -9.039062 21.625 -7.375 C 21.625 -5.851562 21.226562 -4.488281 20.4375 -3.28125 C 19.644531 -2.082031 18.476562 -1.132812 16.9375 -0.4375 C 15.394531 0.25 13.550781 0.59375 11.40625 0.59375 C 9.34375 0.59375 7.414062 0.195312 5.625 -0.59375 C 3.832031 -1.394531 2.347656 -2.367188 1.171875 -3.515625 L 3.84375 -8.171875 C 5.082031 -6.929688 6.359375 -6.035156 7.671875 -5.484375 C 8.992188 -4.929688 10.238281 -4.65625 11.40625 -4.65625 C 14.320312 -4.65625 15.78125 -5.441406 15.78125 -7.015625 C 15.78125 -7.617188 15.476562 -8.109375 14.875 -8.484375 C 14.28125 -8.859375 13.21875 -9.179688 11.6875 -9.453125 C 8.375 -10.023438 5.9375 -10.925781 4.375 -12.15625 C 2.820312 -13.394531 2.046875 -15.066406 2.046875 -17.171875 C 2.046875 -18.617188 2.429688 -19.945312 3.203125 -21.15625 C 3.984375 -22.363281 5.113281 -23.320312 6.59375 -24.03125 C 8.070312 -24.75 9.789062 -25.109375 11.75 -25.109375 C 12.863281 -25.109375 14.28125 -24.90625 16 -24.5 C 17.71875 -24.09375 19.269531 -23.253906 20.65625 -21.984375 L 18.109375 -17.390625 C 17.421875 -18.078125 16.519531 -18.660156 15.40625 -19.140625 C 14.289062 -19.617188 13.050781 -19.859375 11.6875 -19.859375 C 10.632812 -19.859375 9.738281 -19.671875 9 -19.296875 C 8.257812 -18.929688 7.890625 -18.425781 7.890625 -17.78125 C 7.890625 -17.382812 8 -17.050781 8.21875 -16.78125 C 8.4375 -16.519531 8.820312 -16.285156 9.375 -16.078125 C 9.925781 -15.867188 10.695312 -15.660156 11.6875 -15.453125 Z M 11.6875 -15.453125 "/></g></g></g><g fill="#142d4c" fill-opacity="1"><g transform="translate(220.348683, 268.258659)"><g><path d="M 11.6875 -15.453125 C 13.882812 -14.984375 15.679688 -14.453125 17.078125 -13.859375 C 18.472656 -13.273438 19.578125 -12.460938 20.390625 -11.421875 C 21.210938 -10.390625 21.625 -9.039062 21.625 -7.375 C 21.625 -5.851562 21.226562 -4.488281 20.4375 -3.28125 C 19.644531 -2.082031 18.476562 -1.132812 16.9375 -0.4375 C 15.394531 0.25 13.550781 0.59375 11.40625 0.59375 C 9.34375 0.59375 7.414062 0.195312 5.625 -0.59375 C 3.832031 -1.394531 2.347656 -2.367188 1.171875 -3.515625 L 3.84375 -8.171875 C 5.082031 -6.929688 6.359375 -6.035156 7.671875 -5.484375 C 8.992188 -4.929688 10.238281 -4.65625 11.40625 -4.65625 C 14.320312 -4.65625 15.78125 -5.441406 15.78125 -7.015625 C 15.78125 -7.617188 15.476562 -8.109375 14.875 -8.484375 C 14.28125 -8.859375 13.21875 -9.179688 11.6875 -9.453125 C 8.375 -10.023438 5.9375 -10.925781 4.375 -12.15625 C 2.820312 -13.394531 2.046875 -15.066406 2.046875 -17.171875 C 2.046875 -18.617188 2.429688 -19.945312 3.203125 -21.15625 C 3.984375 -22.363281 5.113281 -23.320312 6.59375 -24.03125 C 8.070312 -24.75 9.789062 -25.109375 11.75 -25.109375 C 12.863281 -25.109375 14.28125 -24.90625 16 -24.5 C 17.71875 -24.09375 19.269531 -23.253906 20.65625 -21.984375 L 18.109375 -17.390625 C 17.421875 -18.078125 16.519531 -18.660156 15.40625 -19.140625 C 14.289062 -19.617188 13.050781 -19.859375 11.6875 -19.859375 C 10.632812 -19.859375 9.738281 -19.671875 9 -19.296875 C 8.257812 -18.929688 7.890625 -18.425781 7.890625 -17.78125 C 7.890625 -17.382812 8 -17.050781 8.21875 -16.78125 C 8.4375 -16.519531 8.820312 -16.285156 9.375 -16.078125 C 9.925781 -15.867188 10.695312 -15.660156 11.6875 -15.453125 Z M 11.6875 -15.453125 "/></g></g></g><path fill="#f80000" d="M 87.140625 280.378906 L 291.367188 280.378906 C 298.652344 280.378906 304.558594 286.285156 304.558594 293.574219 C 304.558594 300.859375 298.652344 306.765625 291.367188 306.765625 L 87.140625 306.765625 C 79.855469 306.765625 73.949219 300.859375 73.949219 293.574219 C 73.949219 286.285156 79.855469 280.378906 87.140625 280.378906 Z M 87.140625 280.378906 " fill-opacity="1" fill-rule="nonzero"/><g fill="#fafafa" fill-opacity="1"><g transform="translate(83.087732, 299.341765)"><g><path d="M 1.84375 -11.296875 L 6.4375 -11.296875 C 7.632812 -11.296875 8.6875 -11.054688 9.59375 -10.578125 C 10.507812 -10.097656 11.222656 -9.429688 11.734375 -8.578125 C 12.242188 -7.722656 12.5 -6.75 12.5 -5.65625 C 12.5 -4.550781 12.242188 -3.570312 11.734375 -2.71875 C 11.222656 -1.863281 10.507812 -1.195312 9.59375 -0.71875 C 8.6875 -0.238281 7.632812 0 6.4375 0 L 1.84375 0 Z M 6.375 -1.03125 C 7.363281 -1.03125 8.226562 -1.226562 8.96875 -1.625 C 9.71875 -2.019531 10.296875 -2.5625 10.703125 -3.25 C 11.109375 -3.945312 11.3125 -4.75 11.3125 -5.65625 C 11.3125 -6.550781 11.109375 -7.347656 10.703125 -8.046875 C 10.296875 -8.742188 9.71875 -9.285156 8.96875 -9.671875 C 8.226562 -10.066406 7.363281 -10.265625 6.375 -10.265625 L 3.03125 -10.265625 L 3.03125 -1.03125 Z M 6.375 -1.03125 "/></g></g></g><g fill="#fafafa" fill-opacity="1"><g transform="translate(101.768566, 299.341765)"><g><path d="M 1.84375 -11.296875 L 3.03125 -11.296875 L 3.03125 0 L 1.84375 0 Z M 1.84375 -11.296875 "/></g></g></g><g fill="#fafafa" fill-opacity="1"><g transform="translate(111.999711, 299.341765)"><g><path d="M 4.953125 0.09375 C 4.117188 0.09375 3.316406 -0.0351562 2.546875 -0.296875 C 1.773438 -0.566406 1.179688 -0.925781 0.765625 -1.375 L 1.234375 -2.296875 C 1.640625 -1.878906 2.179688 -1.546875 2.859375 -1.296875 C 3.535156 -1.046875 4.234375 -0.921875 4.953125 -0.921875 C 5.960938 -0.921875 6.71875 -1.101562 7.21875 -1.46875 C 7.726562 -1.84375 7.984375 -2.328125 7.984375 -2.921875 C 7.984375 -3.367188 7.847656 -3.726562 7.578125 -4 C 7.304688 -4.269531 6.96875 -4.476562 6.5625 -4.625 C 6.164062 -4.769531 5.613281 -4.925781 4.90625 -5.09375 C 4.050781 -5.3125 3.367188 -5.519531 2.859375 -5.71875 C 2.359375 -5.914062 1.925781 -6.21875 1.5625 -6.625 C 1.207031 -7.039062 1.03125 -7.597656 1.03125 -8.296875 C 1.03125 -8.867188 1.179688 -9.390625 1.484375 -9.859375 C 1.785156 -10.328125 2.25 -10.695312 2.875 -10.96875 C 3.5 -11.25 4.273438 -11.390625 5.203125 -11.390625 C 5.847656 -11.390625 6.476562 -11.300781 7.09375 -11.125 C 7.707031 -10.945312 8.242188 -10.703125 8.703125 -10.390625 L 8.296875 -9.4375 C 7.828125 -9.75 7.320312 -9.984375 6.78125 -10.140625 C 6.238281 -10.296875 5.710938 -10.375 5.203125 -10.375 C 4.210938 -10.375 3.46875 -10.179688 2.96875 -9.796875 C 2.46875 -9.421875 2.21875 -8.929688 2.21875 -8.328125 C 2.21875 -7.878906 2.351562 -7.515625 2.625 -7.234375 C 2.894531 -6.960938 3.238281 -6.753906 3.65625 -6.609375 C 4.070312 -6.460938 4.628906 -6.304688 5.328125 -6.140625 C 6.148438 -5.929688 6.816406 -5.726562 7.328125 -5.53125 C 7.847656 -5.332031 8.285156 -5.03125 8.640625 -4.625 C 8.992188 -4.21875 9.171875 -3.671875 9.171875 -2.984375 C 9.171875 -2.410156 9.015625 -1.890625 8.703125 -1.421875 C 8.398438 -0.953125 7.929688 -0.582031 7.296875 -0.3125 C 6.660156 -0.0390625 5.878906 0.09375 4.953125 0.09375 Z M 4.953125 0.09375 "/></g></g></g><g fill="#fafafa" fill-opacity="1"><g transform="translate(127.278101, 299.341765)"><g><path d="M 4.03125 -10.265625 L 0.0625 -10.265625 L 0.0625 -11.296875 L 9.203125 -11.296875 L 9.203125 -10.265625 L 5.234375 -10.265625 L 5.234375 0 L 4.03125 0 Z M 4.03125 -10.265625 "/></g></g></g><g fill="#fafafa" fill-opacity="1"><g transform="translate(141.89535, 299.341765)"><g><path d="M 9.5625 0 L 6.96875 -3.625 C 6.675781 -3.59375 6.375 -3.578125 6.0625 -3.578125 L 3.03125 -3.578125 L 3.03125 0 L 1.84375 0 L 1.84375 -11.296875 L 6.0625 -11.296875 C 7.507812 -11.296875 8.640625 -10.953125 9.453125 -10.265625 C 10.273438 -9.578125 10.6875 -8.628906 10.6875 -7.421875 C 10.6875 -6.535156 10.460938 -5.789062 10.015625 -5.1875 C 9.566406 -4.582031 8.929688 -4.144531 8.109375 -3.875 L 10.859375 0 Z M 6.03125 -4.59375 C 7.15625 -4.59375 8.007812 -4.835938 8.59375 -5.328125 C 9.1875 -5.828125 9.484375 -6.523438 9.484375 -7.421875 C 9.484375 -8.335938 9.1875 -9.039062 8.59375 -9.53125 C 8.007812 -10.019531 7.15625 -10.265625 6.03125 -10.265625 L 3.03125 -10.265625 L 3.03125 -4.59375 Z M 6.03125 -4.59375 "/></g></g></g><g fill="#fafafa" fill-opacity="1"><g transform="translate(158.915283, 299.341765)"><g><path d="M 1.84375 -11.296875 L 3.03125 -11.296875 L 3.03125 0 L 1.84375 0 Z M 1.84375 -11.296875 "/></g></g></g><g fill="#fafafa" fill-opacity="1"><g transform="translate(169.146428, 299.341765)"><g><path d="M 8.953125 -5.828125 C 9.703125 -5.660156 10.273438 -5.335938 10.671875 -4.859375 C 11.078125 -4.378906 11.28125 -3.765625 11.28125 -3.015625 C 11.28125 -2.046875 10.921875 -1.300781 10.203125 -0.78125 C 9.492188 -0.257812 8.4375 0 7.03125 0 L 1.84375 0 L 1.84375 -11.296875 L 6.71875 -11.296875 C 7.976562 -11.296875 8.953125 -11.039062 9.640625 -10.53125 C 10.335938 -10.03125 10.6875 -9.316406 10.6875 -8.390625 C 10.6875 -7.765625 10.53125 -7.234375 10.21875 -6.796875 C 9.914062 -6.367188 9.492188 -6.046875 8.953125 -5.828125 Z M 3.03125 -10.3125 L 3.03125 -6.21875 L 6.640625 -6.21875 C 7.546875 -6.21875 8.242188 -6.390625 8.734375 -6.734375 C 9.234375 -7.085938 9.484375 -7.597656 9.484375 -8.265625 C 9.484375 -8.929688 9.234375 -9.4375 8.734375 -9.78125 C 8.242188 -10.132812 7.546875 -10.3125 6.640625 -10.3125 Z M 7.015625 -0.984375 C 8.023438 -0.984375 8.789062 -1.15625 9.3125 -1.5 C 9.832031 -1.84375 10.09375 -2.378906 10.09375 -3.109375 C 10.09375 -4.523438 9.066406 -5.234375 7.015625 -5.234375 L 3.03125 -5.234375 L 3.03125 -0.984375 Z M 7.015625 -0.984375 "/></g></g></g><g fill="#fafafa" fill-opacity="1"><g transform="translate(186.666233, 299.341765)"><g><path d="M 6.390625 0.09375 C 4.929688 0.09375 3.789062 -0.320312 2.96875 -1.15625 C 2.15625 -2 1.75 -3.222656 1.75 -4.828125 L 1.75 -11.296875 L 2.9375 -11.296875 L 2.9375 -4.875 C 2.9375 -3.5625 3.234375 -2.582031 3.828125 -1.9375 C 4.421875 -1.289062 5.273438 -0.96875 6.390625 -0.96875 C 7.523438 -0.96875 8.382812 -1.289062 8.96875 -1.9375 C 9.5625 -2.582031 9.859375 -3.5625 9.859375 -4.875 L 9.859375 -11.296875 L 11.03125 -11.296875 L 11.03125 -4.828125 C 11.03125 -3.222656 10.625 -2 9.8125 -1.15625 C 9 -0.320312 7.859375 0.09375 6.390625 0.09375 Z M 6.390625 0.09375 "/></g></g></g><g fill="#fafafa" fill-opacity="1"><g transform="translate(204.798815, 299.341765)"><g><path d="M 6.75 0.09375 C 5.625 0.09375 4.613281 -0.148438 3.71875 -0.640625 C 2.820312 -1.140625 2.117188 -1.828125 1.609375 -2.703125 C 1.097656 -3.578125 0.84375 -4.5625 0.84375 -5.65625 C 0.84375 -6.738281 1.097656 -7.71875 1.609375 -8.59375 C 2.117188 -9.46875 2.820312 -10.148438 3.71875 -10.640625 C 4.625 -11.140625 5.640625 -11.390625 6.765625 -11.390625 C 7.597656 -11.390625 8.367188 -11.25 9.078125 -10.96875 C 9.796875 -10.695312 10.398438 -10.289062 10.890625 -9.75 L 10.140625 -8.984375 C 9.253906 -9.878906 8.140625 -10.328125 6.796875 -10.328125 C 5.898438 -10.328125 5.085938 -10.125 4.359375 -9.71875 C 3.628906 -9.3125 3.054688 -8.75 2.640625 -8.03125 C 2.222656 -7.320312 2.015625 -6.53125 2.015625 -5.65625 C 2.015625 -4.769531 2.222656 -3.96875 2.640625 -3.25 C 3.054688 -2.539062 3.628906 -1.984375 4.359375 -1.578125 C 5.085938 -1.171875 5.898438 -0.96875 6.796875 -0.96875 C 8.148438 -0.96875 9.265625 -1.421875 10.140625 -2.328125 L 10.890625 -1.5625 C 10.398438 -1.03125 9.796875 -0.617188 9.078125 -0.328125 C 8.359375 -0.046875 7.582031 0.09375 6.75 0.09375 Z M 6.75 0.09375 "/></g></g></g><g fill="#fafafa" fill-opacity="1"><g transform="translate(221.754238, 299.341765)"><g><path d="M 1.84375 -11.296875 L 3.03125 -11.296875 L 3.03125 0 L 1.84375 0 Z M 1.84375 -11.296875 "/></g></g></g><g fill="#fafafa" fill-opacity="1"><g transform="translate(231.985382, 299.341765)"><g><path d="M 6.78125 0.09375 C 5.65625 0.09375 4.640625 -0.15625 3.734375 -0.65625 C 2.828125 -1.15625 2.117188 -1.835938 1.609375 -2.703125 C 1.097656 -3.578125 0.84375 -4.5625 0.84375 -5.65625 C 0.84375 -6.738281 1.097656 -7.710938 1.609375 -8.578125 C 2.117188 -9.453125 2.828125 -10.140625 3.734375 -10.640625 C 4.640625 -11.140625 5.65625 -11.390625 6.78125 -11.390625 C 7.894531 -11.390625 8.898438 -11.140625 9.796875 -10.640625 C 10.703125 -10.148438 11.410156 -9.46875 11.921875 -8.59375 C 12.441406 -7.71875 12.703125 -6.738281 12.703125 -5.65625 C 12.703125 -4.5625 12.441406 -3.578125 11.921875 -2.703125 C 11.410156 -1.828125 10.703125 -1.140625 9.796875 -0.640625 C 8.898438 -0.148438 7.894531 0.09375 6.78125 0.09375 Z M 6.78125 -0.96875 C 7.675781 -0.96875 8.484375 -1.164062 9.203125 -1.5625 C 9.921875 -1.96875 10.484375 -2.53125 10.890625 -3.25 C 11.304688 -3.96875 11.515625 -4.769531 11.515625 -5.65625 C 11.515625 -6.53125 11.304688 -7.328125 10.890625 -8.046875 C 10.484375 -8.765625 9.921875 -9.320312 9.203125 -9.71875 C 8.484375 -10.125 7.675781 -10.328125 6.78125 -10.328125 C 5.882812 -10.328125 5.070312 -10.125 4.34375 -9.71875 C 3.625 -9.320312 3.054688 -8.765625 2.640625 -8.046875 C 2.222656 -7.328125 2.015625 -6.53125 2.015625 -5.65625 C 2.015625 -4.769531 2.222656 -3.96875 2.640625 -3.25 C 3.054688 -2.53125 3.625 -1.96875 4.34375 -1.5625 C 5.070312 -1.164062 5.882812 -0.96875 6.78125 -0.96875 Z M 6.78125 -0.96875 "/></g></g></g><g fill="#fafafa" fill-opacity="1"><g transform="translate(250.875847, 299.341765)"><g><path d="M 11.28125 -11.296875 L 11.28125 0 L 10.296875 0 L 3.03125 -9.171875 L 3.03125 0 L 1.84375 0 L 1.84375 -11.296875 L 2.828125 -11.296875 L 10.109375 -2.125 L 10.109375 -11.296875 Z M 11.28125 -11.296875 "/></g></g></g><g fill="#fafafa" fill-opacity="1"><g transform="translate(269.34705, 299.341765)"><g><path d="M 9.828125 -1.03125 L 9.828125 0 L 1.84375 0 L 1.84375 -11.296875 L 9.59375 -11.296875 L 9.59375 -10.265625 L 3.03125 -10.265625 L 3.03125 -6.25 L 8.875 -6.25 L 8.875 -5.234375 L 3.03125 -5.234375 L 3.03125 -1.03125 Z M 9.828125 -1.03125 "/></g></g></g><g fill="#fafafa" fill-opacity="1"><g transform="translate(285.496211, 299.341765)"><g><path d="M 4.953125 0.09375 C 4.117188 0.09375 3.316406 -0.0351562 2.546875 -0.296875 C 1.773438 -0.566406 1.179688 -0.925781 0.765625 -1.375 L 1.234375 -2.296875 C 1.640625 -1.878906 2.179688 -1.546875 2.859375 -1.296875 C 3.535156 -1.046875 4.234375 -0.921875 4.953125 -0.921875 C 5.960938 -0.921875 6.71875 -1.101562 7.21875 -1.46875 C 7.726562 -1.84375 7.984375 -2.328125 7.984375 -2.921875 C 7.984375 -3.367188 7.847656 -3.726562 7.578125 -4 C 7.304688 -4.269531 6.96875 -4.476562 6.5625 -4.625 C 6.164062 -4.769531 5.613281 -4.925781 4.90625 -5.09375 C 4.050781 -5.3125 3.367188 -5.519531 2.859375 -5.71875 C 2.359375 -5.914062 1.925781 -6.21875 1.5625 -6.625 C 1.207031 -7.039062 1.03125 -7.597656 1.03125 -8.296875 C 1.03125 -8.867188 1.179688 -9.390625 1.484375 -9.859375 C 1.785156 -10.328125 2.25 -10.695312 2.875 -10.96875 C 3.5 -11.25 4.273438 -11.390625 5.203125 -11.390625 C 5.847656 -11.390625 6.476562 -11.300781 7.09375 -11.125 C 7.707031 -10.945312 8.242188 -10.703125 8.703125 -10.390625 L 8.296875 -9.4375 C 7.828125 -9.75 7.320312 -9.984375 6.78125 -10.140625 C 6.238281 -10.296875 5.710938 -10.375 5.203125 -10.375 C 4.210938 -10.375 3.46875 -10.179688 2.96875 -9.796875 C 2.46875 -9.421875 2.21875 -8.929688 2.21875 -8.328125 C 2.21875 -7.878906 2.351562 -7.515625 2.625 -7.234375 C 2.894531 -6.960938 3.238281 -6.753906 3.65625 -6.609375 C 4.070312 -6.460938 4.628906 -6.304688 5.328125 -6.140625 C 6.148438 -5.929688 6.816406 -5.726562 7.328125 -5.53125 C 7.847656 -5.332031 8.285156 -5.03125 8.640625 -4.625 C 8.992188 -4.21875 9.171875 -3.671875 9.171875 -2.984375 C 9.171875 -2.410156 9.015625 -1.890625 8.703125 -1.421875 C 8.398438 -0.953125 7.929688 -0.582031 7.296875 -0.3125 C 6.660156 -0.0390625 5.878906 0.09375 4.953125 0.09375 Z M 4.953125 0.09375 "/></g></g></g></svg>